<svg xmlns="http://www.w3.org/2000/svg" viewBox="0 0 24 24">
  <circle cx="12" cy="12" r="12" fill="#e01f27"/>
  <g fill="#8b0000">
    <rect x="7" y="1" width="10" height="1"/>
    <rect x="6" y="2" width="2" height="1"/>
    <rect x="16" y="2" width="2" height="1"/>
    <rect x="4" y="3" width="2" height="1"/>
    <rect x="18" y="3" width="2" height="1"/>
    <rect x="3" y="4" width="1" height="1"/>
    <rect x="19" y="4" width="2" height="1"/>
    <rect x="20" y="5" width="1" height="1"/>
    <rect x="2" y="6" width="1" height="1"/>
    <rect x="21" y="6" width="1" height="1"/>
    <rect x="1" y="7" width="1" height="1"/>
    <rect x="22" y="7" width="1" height="1"/>
    <rect x="1" y="8" width="1" height="1"/>
    <rect x="22" y="8" width="1" height="1"/>
    <rect x="22" y="14" width="1" height="1"/>
    <rect x="1" y="15" width="1" height="1"/>
    <rect x="22" y="15" width="1" height="1"/>
    <rect x="1" y="16" width="2" height="1"/>
    <rect x="22" y="16" width="1" height="1"/>
    <rect x="2" y="17" width="1" height="1"/>
    <rect x="21" y="17" width="1" height="1"/>
    <rect x="3" y="18" width="1" height="1"/>
    <rect x="20" y="18" width="1" height="1"/>
    <rect x="3" y="19" width="1" height="1"/>
    <rect x="19" y="19" width="2" height="1"/>
    <rect x="4" y="20" width="2" height="1"/>
    <rect x="17" y="20" width="3" height="1"/>
    <rect x="6" y="21" width="2" height="1"/>
    <rect x="16" y="21" width="2" height="1"/>
    <rect x="7" y="22" width="10" height="1"/>
  </g>
  <g fill="#ffffff">
    <rect x="7" y="4" width="5" height="1"/>
    <rect x="14" y="4" width="5" height="1"/>
    <rect x="6" y="5" width="3" height="1"/>
    <rect x="10" y="5" width="2" height="1"/>
    <rect x="14" y="5" width="6" height="1"/>
    <rect x="5" y="6" width="3" height="1"/>
    <rect x="11" y="6" width="1" height="1"/>
    <rect x="13" y="6" width="2" height="1"/>
    <rect x="16" y="6" width="4" height="1"/>
    <rect x="5" y="7" width="3" height="1"/>
    <rect x="13" y="7" width="1" height="1"/>
    <rect x="4" y="8" width="4" height="1"/>
    <rect x="12" y="8" width="2" height="1"/>
    <rect x="3" y="9" width="7" height="1"/>
    <rect x="12" y="9" width="7" height="1"/>
    <rect x="5" y="10" width="3" height="1"/>
    <rect x="12" y="10" width="8" height="1"/>
    <rect x="5" y="11" width="3" height="1"/>
    <rect x="12" y="11" width="10" height="1"/>
    <rect x="5" y="12" width="3" height="1"/>
    <rect x="17" y="12" width="5" height="1"/>
    <rect x="5" y="13" width="3" height="1"/>
    <rect x="18" y="13" width="4" height="1"/>
    <rect x="5" y="14" width="3" height="1"/>
    <rect x="12" y="14" width="1" height="1"/>
    <rect x="20" y="14" width="2" height="1"/>
    <rect x="5" y="15" width="3" height="1"/>
    <rect x="11" y="15" width="3" height="1"/>
    <rect x="20" y="15" width="1" height="1"/>
    <rect x="3" y="16" width="5" height="1"/>
    <rect x="11" y="16" width="3" height="1"/>
    <rect x="19" y="16" width="1" height="1"/>
    <rect x="5" y="17" width="5" height="1"/>
    <rect x="12" y="17" width="7" height="1"/>
    <rect x="18" y="19" width="1" height="1"/>
  </g>
</svg>
